<svg width="48" height="48" viewBox="0 0 48 48" fill="none" xmlns="http://www.w3.org/2000/svg">
<g clip-path="url(#clip0_2_2)">
<path d="M32.7257 41L30.2297 32.84H17.7497L15.2537 41H7.42969L19.5257 6.584H28.4057L40.5497 41H32.7257ZM26.0057 18.776C25.8457 18.232 25.6377 17.544 25.3817 16.712C25.1257 15.88 24.8697 15.032 24.6137 14.168C24.3577 13.304 24.1497 12.552 23.9897 11.912C23.8297 12.552 23.6057 13.352 23.3177 14.312C23.0617 15.24 22.8057 16.136 22.5497 17C22.3257 17.832 22.1497 18.424 22.0217 18.776L19.5737 26.744H28.5017L26.0057 18.776Z" fill="#D6001C"/>
</g>
<defs>
<clipPath id="clip0_2_2">
<rect width="48" height="48" fill="white"/>
</clipPath>
</defs>
</svg>
